<?xml version="1.0" encoding="UTF-8"?>
<svg id="Layer_2" data-name="Layer 2" xmlns="http://www.w3.org/2000/svg" xmlns:xlink="http://www.w3.org/1999/xlink" viewBox="0 0 402.03 86.02">
  <defs>
    <style>
      .cls-1 {
        fill: url(#linear-gradient);
      }

      .cls-2 {
        fill: #1c2635;
      }
    </style>
    <linearGradient id="linear-gradient" x1="1.23" y1="43.01" x2="94.8" y2="43.01" gradientUnits="userSpaceOnUse">
      <stop offset="0" stop-color="#387a4e"/>
      <stop offset=".07" stop-color="#458855"/>
      <stop offset=".21" stop-color="#5ea263"/>
      <stop offset=".37" stop-color="#6fb56d"/>
      <stop offset=".52" stop-color="#7ac173"/>
      <stop offset=".68" stop-color="#7ec575"/>
      <stop offset="1" stop-color="#e8e742"/>
    </linearGradient>
  </defs>
  <g id="Layer_1-2" data-name="Layer 1">
    <g>
      <path class="cls-1" d="M64.09,51.2c-.35.14-.89.3-1.2.8-3.99,6.31-8.19,12.27-12.66,18.23-.42.56-.46,1.15-.12,1.54-.65-.2-1.01.32-1.44.86l-6.89,8.61c-2.07,2.59-5.3,4.67-8.82,4.68l-29.97.09c-.63,0-1.3-.18-1.51-.46-.3-.42-.43-1.37.11-1.89l28.69-27.61,13.29-12.72,12.75-12.42,5.37-5.18,13.82-13.49c2.89-2.82,5.74-5.38,8.48-8.33,4.4-4.72,10.03-4.52,10.63-2.82.16.45.29,1.27-.14,1.99-9.28,15.56-19.17,30.49-29.24,45.54-.64.95-1.22,1.6-1.18,2.56Z"/>
      <path class="cls-2" d="M142.39,69.09c-3.23.41-6.15.18-9.22.1l-9.62-15.46-9.92,15.54-9.1-.09,14.18-21.79-13.74-21.49c3.21-.26,6.18-.26,9.29-.11l9.76,15.5,9.75-15.48c2.92-.15,5.74-.2,8.98-.02l-13.83,21.8,13.46,21.48Z"/>
      <path class="cls-2" d="M43.2,35.02l-15.63,14.77L.33,16.93c-.39-.47-.39-1.11-.24-1.5.12-.3.61-.65,1.22-.64l22.32.51c1.5.16,2.65.87,3.5,2.09l16.07,17.64Z"/>
      <path class="cls-2" d="M64.09,51.2c1.9,2.87,4.29,5.31,6.7,8.06l19.63,22.48c.35.4.05,1.24-.11,1.53s-.76.61-1.36.6l-25.99-.08c-1.88,0-3.25-.97-4.36-2.25l-8.48-9.78c-.34-.39-.31-.98.12-1.54,4.47-5.97,8.67-11.93,12.66-18.23.31-.49.85-.66,1.2-.8Z"/>
      <path class="cls-2" d="M290.13,69.22c-6.98,1.73-14.06.76-20.51-2.29l1.72-6.62c4.98,2.66,19.32,5.34,20.05-1.86.84-8.35-14.4-6.35-19.43-14.38-2.31-3.7-2.29-8.85.09-12.55,5.15-7.99,19.05-7.08,26.47-3.15-.53,2.32-1.09,4.3-1.92,6.29-4.66-2.15-17.39-4.42-18.04,2.36-.21,2.23,1.05,4.23,3.34,5.12l10.69,4.18c5.02,1.97,7.58,6.57,7.08,11.94-.5,5.43-3.99,9.57-9.54,10.95Z"/>
      <path class="cls-2" d="M152.51,82.66c-2.52.09-4.98.17-7.48-.05l.04-42.65c2.19-.3,4.2-.17,6.46-.21l1.03,2.93c4-3.5,9.18-4.64,13.98-2.45,7.76,3.54,8.48,16.53,4.64,23.61-3.66,6.74-12.08,7.94-18.4,3.43l-.26,15.39ZM158.39,64.27c3.18.17,5.62-1.73,6.57-4.54,1.36-4.02,1.6-13.08-3.99-14.43-3.12-.75-6.35.37-8.46,2.76l-.02,13.74c1.48,1.48,3.5,2.34,5.9,2.46Z"/>
      <path class="cls-2" d="M327.5,67.36c-3.82,2.67-8.46,3.08-12.81,2.15-5.06-1.08-9-4.74-10.23-9.79-1.05-4.31-.92-8.92.96-12.99,2.1-4.55,6.65-7.09,11.53-7.56s10.15,1.09,13.25,5.15c4.33,5.65,4.5,17.99-2.7,23.04ZM324.44,60.85c1.7-4.18,1.67-9.11-.23-13.01-1.21-2.49-3.81-3.13-6.28-2.98-7.35.45-7.29,10.79-5.28,15.8,1,2.49,3.39,3.66,5.71,3.72s4.98-.8,6.09-3.53Z"/>
      <path class="cls-2" d="M201.75,62.6c.83,1.63,1.22,3.36,1.36,5.33-8.78,3.71-21.86,3.16-24.94-7.59-2.2-7.66.2-17.78,8.59-20.47,5.17-1.66,10.74-.84,14.26,3.21,3.25,3.73,3.45,8.99,3,13.57l-18.7.17c-.42,3.75,2.35,6.69,5.91,7.28s6.79.08,10.52-1.5ZM197.12,51.75c.07-2.17-.17-4.32-1.63-5.78-2.65-2.66-7.17-1.82-9.06,1.31-.83,1.37-1.27,2.73-1.36,4.42l12.05.06Z"/>
      <path class="cls-2" d="M368.51,66.36c-4.27,3.89-9.92,4.98-14.55,1.75-2.48-1.74-3.33-5-2.82-7.93,1.24-7.13,10.86-7.69,16.72-8.23,1-1.07.54-3.49-.06-4.7-1.89-3.84-10.47-1.42-13.69-.3-.61-1.6-.8-3.17-1.11-5.18,4.55-2.13,9.72-3.19,14.81-2.29,4.39.78,7.56,4.17,7.62,8.6l.24,15.47c.02,1.45,1.98,1.39,3.1,1.11.09,1.05.54,2.92-.05,3.95-2.76,1.71-7.99,2.12-10.2-2.27ZM368.37,61.63l-.22-5.33c-3.41.02-9.71.53-9.61,4.84.03,1.47.74,2.89,2.41,3.32,2.73.72,5.63-.59,7.42-2.83Z"/>
      <path class="cls-2" d="M255.12,63.44c.3,1.78.15,3.38.13,5.29-3.29,1.25-6.91,1.57-10.34.53-3.05-.92-4.98-3.45-5-6.66l-.12-16.68-4.03-.23c-.19-1.95-.09-3.83.01-5.8l4.02-.2.28-8.05c2.25-.43,4.55-.36,7.07-.5l.22,8.45,7.66.31.07,5.72-7.66.23-.1,14.6c-.01,1.76.92,3.16,2.64,3.42,1.63.24,2.85.05,5.16-.44Z"/>
      <path class="cls-2" d="M217.21,59.9c2.53,5.57,10.1,4.38,14.7,2.7.5,1.95.82,3.62.9,5.55-7.17,3.08-18.29,2.5-22.35-4.86-2.84-5.16-2.84-11.63-.11-16.85,4.1-7.81,14.98-8.91,22.33-5.52l-.91,5.62c-5.24-1.98-13.04-2.83-15.08,3.83-.95,3.11-.86,6.51.51,9.52Z"/>
      <path class="cls-2" d="M345.61,69.18c-2.75.19-5.01.21-7.52-.1l.05-44.81c2.48-.35,4.89-.23,7.5-.07l-.03,44.98Z"/>
      <path class="cls-2" d="M390.73,69.08c-2.18.4-4.56.14-7.32.18l-.08-29.39c2.43-.17,4.6-.15,6.87,0,.35,1.75-.11,3.33.5,5.28,2.38-4.33,6.45-7.2,11.32-5.53-.01,2.39-.01,4.78-.62,7.21-3.82-1.51-10.18.07-10.28,4.46l-.4,17.78Z"/>
    </g>
  </g>
</svg>